<?xml version="1.0" standalone="no"?>
<!DOCTYPE svg PUBLIC "-//W3C//DTD SVG 20010904//EN"
 "http://www.w3.org/TR/2001/REC-SVG-20010904/DTD/svg10.dtd">
<svg version="1.0" xmlns="http://www.w3.org/2000/svg"
 width="8000.000000pt" height="8000.000000pt" viewBox="0 0 8000.000000 8000.000000"
 preserveAspectRatio="xMidYMid meet">

<g transform="translate(0.000000,8000.000000) scale(0.100000,-0.100000)"
fill="#000000" stroke="none">
<path d="M38505 63979 c-60 -4 -180 -13 -265 -19 -222 -15 -336 -25 -685 -61
-336 -34 -834 -99 -1225 -159 -163 -25 -616 -106 -750 -133 -41 -9 -124 -25
-185 -36 -60 -12 -128 -25 -150 -31 -22 -5 -96 -21 -165 -36 -227 -47 -648
-148 -1010 -243 -564 -147 -1443 -423 -1945 -611 -540 -201 -955 -369 -1395
-563 -229 -101 -259 -115 -500 -227 -155 -72 -806 -396 -825 -409 -5 -5 -77
-43 -160 -86 -82 -43 -154 -81 -160 -85 -5 -4 -50 -29 -100 -55 -111 -59 -99
-53 -390 -220 -220 -126 -488 -286 -690 -412 -44 -27 -118 -74 -165 -103 -217
-135 -760 -501 -1015 -683 -856 -614 -1636 -1256 -2390 -1968 -206 -194 -750
-738 -930 -929 -698 -741 -1417 -1615 -1957 -2380 -37 -52 -101 -143 -142
-201 -372 -526 -926 -1414 -1233 -1979 -40 -74 -78 -142 -118 -215 -126 -227
-463 -897 -589 -1170 -113 -243 -290 -641 -343 -770 -25 -60 -51 -123 -58
-140 -55 -130 -184 -454 -246 -617 -17 -46 -48 -128 -69 -183 -21 -55 -55
-147 -75 -205 -20 -58 -50 -141 -65 -185 -134 -373 -364 -1110 -484 -1555 -32
-118 -155 -601 -167 -655 -5 -22 -18 -78 -29 -125 -64 -269 -170 -777 -224
-1075 -42 -229 -44 -242 -76 -440 -17 -104 -35 -217 -40 -250 -29 -176 -102
-731 -120 -915 -5 -52 -16 -165 -25 -250 -69 -702 -105 -1358 -105 -1930 l0
-285 3098 0 3097 0 3 380 c1 209 5 387 8 395 3 8 5 59 4 112 0 54 3 105 8 115
6 10 13 106 17 213 4 107 12 200 17 207 5 7 8 41 7 77 -2 35 0 68 4 72 4 4 7
33 7 64 0 31 3 60 7 64 4 4 8 28 9 54 6 116 24 290 34 322 5 19 14 76 20 125
17 154 35 280 42 290 3 6 9 48 13 95 3 47 10 94 15 105 5 11 14 52 20 90 6 39
13 81 16 95 3 14 7 48 10 75 3 28 8 57 12 65 3 8 7 26 9 40 4 41 25 154 31
170 6 17 26 111 45 210 7 36 15 70 18 75 4 6 10 34 14 62 4 29 11 55 16 59 5
3 9 18 9 33 0 15 3 31 6 34 4 4 8 21 9 39 3 38 21 114 35 143 5 11 14 47 19
80 13 70 15 77 23 90 3 6 9 33 13 60 3 28 17 82 30 120 13 39 27 88 31 110 3
22 10 45 14 50 4 6 12 30 18 55 20 83 34 135 42 150 4 9 11 31 15 50 4 19 11
40 15 45 4 6 7 17 8 25 0 29 32 133 47 157 9 13 14 27 11 31 -4 7 9 48 51 160
3 9 5 21 4 26 -2 9 20 68 39 106 4 9 11 31 15 50 4 19 11 41 16 50 4 8 18 49
30 90 12 41 26 80 30 85 4 6 19 46 33 89 15 44 30 84 34 90 5 6 15 31 22 56 7
25 16 50 20 55 3 6 12 28 19 50 14 45 96 254 151 390 5 11 21 49 35 85 15 36
41 97 57 135 17 39 36 84 43 100 12 30 27 61 104 228 23 49 41 92 41 98 0 5
26 62 59 126 32 65 66 134 74 153 9 19 22 46 30 60 8 14 23 45 34 70 40 88
106 215 125 239 10 13 18 31 18 40 0 10 5 22 10 27 6 6 30 48 53 95 58 112
220 410 262 479 36 59 35 57 117 200 30 52 67 114 82 137 16 23 36 56 45 72
40 75 87 150 121 196 20 28 51 75 69 105 60 102 100 165 112 179 7 8 29 39 49
70 57 88 67 102 110 165 22 32 40 62 40 67 0 4 6 12 13 16 8 4 38 43 68 87 71
102 104 150 159 225 25 34 60 83 78 109 19 26 51 68 73 94 21 26 39 50 39 54
0 4 21 31 47 61 25 30 57 71 70 90 21 31 69 91 173 214 16 20 30 40 30 45 0 5
9 15 20 22 11 7 20 17 20 23 0 6 36 51 80 99 44 48 80 91 80 95 0 8 121 147
283 324 64 71 117 134 117 140 0 14 899 918 1037 1044 184 166 368 329 468
412 53 44 138 117 190 163 51 45 96 82 100 82 3 0 34 24 68 53 35 28 78 63 97
77 18 14 52 41 76 60 23 19 54 44 69 55 16 11 45 34 65 50 20 17 49 39 64 50
16 11 52 38 80 60 28 22 69 53 91 68 22 15 67 48 100 72 33 25 83 61 110 80
28 19 76 54 109 77 32 24 69 50 81 58 13 8 139 92 281 187 143 94 279 185 304
202 25 16 95 60 155 96 61 37 130 79 155 96 25 16 56 34 70 41 14 7 59 33 100
58 41 25 91 54 110 63 19 10 60 33 90 52 82 50 362 203 465 254 50 24 92 47
95 51 3 3 21 12 40 20 19 7 46 22 59 32 13 10 30 18 37 18 7 0 30 11 50 25 21
14 49 28 63 32 13 3 40 17 59 30 19 12 42 23 51 23 10 0 32 11 51 25 19 14 40
25 48 25 8 0 62 24 121 54 58 29 138 67 176 84 144 62 312 136 370 163 33 15
80 35 105 44 55 21 71 28 135 55 28 12 73 30 100 40 28 10 84 33 125 50 41 18
100 40 130 50 30 10 87 30 125 45 76 29 208 78 240 90 11 4 29 11 40 15 11 5
38 14 60 20 22 6 49 15 60 19 19 8 194 65 205 67 3 0 12 3 20 7 67 26 159 55
164 50 3 -3 11 -1 18 4 12 9 152 56 173 58 6 1 17 4 25 6 80 29 148 49 165 49
17 0 78 19 130 40 11 5 43 14 70 19 28 6 75 18 105 27 30 9 83 22 118 30 35 8
71 18 80 23 20 10 93 25 106 22 6 -1 19 2 30 7 21 10 124 35 161 39 11 1 38 7
60 13 22 6 60 16 85 21 25 6 52 13 60 17 8 3 44 11 80 18 36 7 99 20 140 29
41 9 116 23 165 31 50 7 100 18 113 24 13 5 42 10 66 10 23 0 46 3 49 7 4 3
17 8 30 9 12 1 63 10 112 19 50 9 132 23 183 31 50 8 136 21 190 29 53 9 142
20 197 26 55 6 109 14 120 19 11 5 76 14 145 20 178 16 216 19 300 30 82 10
141 15 327 27 67 4 123 10 125 13 2 3 18 34 36 69 l32 64 0 3043 0 3044 -67
-1 c-38 -1 -117 -5 -178 -10z m-10100 -5904 l21 -70 -33 -115 c-18 -63 -42
-146 -54 -185 -45 -157 -65 -210 -190 -508 l-130 -312 -187 -188 -187 -189
-185 -90 c-102 -50 -212 -103 -245 -118 -33 -15 -125 -60 -203 -98 -87 -43
-150 -68 -160 -65 -10 4 -62 39 -117 79 -55 39 -101 71 -103 69 -2 -1 11 -30
29 -64 l32 -61 116 -36 c497 -153 835 -282 858 -325 15 -29 17 -69 3 -69 -5 0
-58 14 -117 31 -60 17 -130 37 -158 44 -27 8 -120 34 -205 58 -85 24 -206 58
-267 76 -62 17 -120 34 -129 38 -29 11 4 -46 208 -358 65 -99 111 -158 144
-185 27 -21 78 -64 114 -94 36 -30 119 -97 185 -147 66 -51 199 -153 295 -227
201 -156 247 -180 620 -333 250 -101 258 -104 400 -124 105 -15 149 -25 158
-37 18 -24 11 -43 -23 -64 -29 -16 -35 -16 -148 2 -90 14 -149 31 -260 75
-484 194 -454 180 -592 278 -185 132 -507 360 -737 523 l-197 139 -67 135
c-37 74 -100 203 -140 286 -40 83 -79 155 -86 161 -7 5 -83 29 -168 52 -85 24
-175 49 -200 57 -191 57 -404 114 -413 111 -6 -2 7 -16 29 -32 117 -86 145
-106 209 -151 38 -27 162 -134 275 -239 113 -104 225 -208 249 -230 43 -39
289 -314 528 -590 71 -82 145 -157 177 -179 31 -21 56 -45 56 -53 0 -45 -79
-131 -129 -139 -20 -3 -56 -10 -81 -15 -42 -9 -54 -6 -160 37 -63 25 -128 52
-145 59 -37 15 -112 47 -275 114 -121 51 -130 56 -280 185 -109 93 -175 158
-220 217 -35 46 -88 116 -118 154 -30 39 -93 121 -140 183 -47 61 -89 109 -92
105 -4 -5 -13 -30 -20 -57 -15 -53 -53 -86 -101 -86 -35 0 -41 -10 -69 -105
-13 -44 -42 -140 -66 -213 l-42 -133 29 -162 c16 -89 38 -208 48 -264 13 -77
24 -110 44 -137 33 -42 33 -52 6 -67 -18 -9 -25 -7 -47 14 -20 21 -31 54 -58
184 -19 87 -40 196 -49 242 -15 87 -21 104 -29 80 -3 -8 -33 -102 -66 -209
-97 -307 -99 -312 -117 -339 -40 -64 -184 -250 -201 -263 -11 -7 -50 -41 -86
-75 -89 -84 -98 -89 -200 -102 -72 -10 -91 -10 -97 1 -26 41 11 75 114 106 51
15 77 34 200 143 83 74 160 152 186 188 48 69 40 42 240 815 l49 190 -40 48
c-46 53 -59 58 -73 27 -14 -31 -76 -64 -106 -56 -14 4 -81 68 -163 157 -137
148 -140 151 -158 132 -19 -18 -19 -21 -2 -77 20 -70 13 -113 -35 -217 -45
-96 -44 -105 9 -140 25 -16 99 -65 166 -108 130 -84 186 -147 204 -225 11 -50
7 -58 -127 -232 -59 -77 -175 -229 -257 -337 -82 -108 -154 -196 -160 -196
-28 1 -34 17 -31 100 5 161 46 834 51 859 6 24 5 25 -11 10 -13 -13 -38 -134
-45 -216 0 -2 -8 -3 -19 -3 -10 0 -25 10 -33 22 -14 21 -14 21 -27 -10 -14
-33 -40 -50 -45 -29 -26 96 -27 89 36 173 33 44 78 98 101 122 43 44 43 45
-10 42 -27 -1 -36 4 -53 32 -13 22 -19 46 -18 72 3 38 2 39 -41 54 -30 10 -49
24 -63 48 -14 24 -45 48 -105 80 -46 26 -88 43 -92 38 -5 -5 -35 -144 -66
-309 -32 -165 -62 -310 -66 -322 -5 -13 -17 -23 -26 -23 -10 0 -95 -56 -188
-125 -94 -69 -199 -147 -235 -172 -61 -44 -203 -149 -367 -270 -40 -30 -155
-93 -260 -144 -456 -221 -400 -200 -633 -242 -130 -24 -150 -24 -150 -2 0 17
11 21 169 56 75 17 147 36 161 43 88 44 762 415 792 435 20 15 118 85 219 156
100 72 230 164 288 205 94 67 160 134 146 148 -3 3 -32 -22 -66 -56 -54 -54
-128 -103 -309 -207 -30 -18 -136 -79 -235 -136 -204 -119 -181 -107 -455
-225 -150 -64 -237 -95 -325 -115 -117 -27 -124 -27 -270 -17 -117 8 -153 13
-162 26 -39 49 1 61 177 51 127 -7 153 -6 210 10 36 10 103 29 150 41 172 47
415 152 680 295 47 26 132 71 190 102 224 120 335 216 364 314 37 129 104 577
89 602 -2 4 -39 31 -81 59 -185 125 -297 216 -347 284 -61 83 -65 88 -75 125
-14 49 7 33 56 -41 71 -108 116 -150 285 -264 87 -58 160 -106 163 -106 3 0 6
6 6 13 0 17 -45 59 -137 126 -48 37 -89 78 -125 130 -91 128 -140 246 -104
246 5 0 14 -14 20 -30 24 -67 93 -174 154 -240 58 -62 178 -165 192 -165 11 0
44 349 49 523 5 162 8 180 25 193 31 22 55 17 102 -21 49 -40 58 -43 49 -14
-9 26 12 77 34 84 31 9 84 -26 191 -128 l104 -99 31 38 c100 126 114 140 197
189 48 29 117 60 154 70 65 17 72 17 198 0 72 -9 145 -23 162 -30 l32 -13 6
96 c3 54 8 153 12 222 5 107 9 128 27 148 11 12 25 22 30 22 23 0 186 -94 375
-217 30 -19 58 -33 64 -31 5 2 27 45 48 96 43 105 77 155 122 178 30 16 31 15
69 -22 30 -29 77 -114 193 -350 l154 -311 160 -92 c88 -50 164 -91 169 -91 5
0 108 36 229 81 327 121 403 169 649 411 l190 188 33 102 c18 57 73 225 122
373 49 149 113 368 144 488 30 119 58 222 61 228 4 5 23 9 43 7 36 -3 37 -4
57 -73z"/>
<path d="M26126 56889 c-26 -67 -44 -125 -39 -129 16 -16 326 -230 328 -228 5
5 -228 478 -235 478 -4 0 -28 -54 -54 -121z"/>
<path d="M25596 56982 c-3 -5 -8 -77 -12 -162 l-7 -153 27 7 c21 5 32 1 52
-19 15 -15 23 -32 20 -41 -9 -25 -28 -145 -24 -150 3 -2 29 -10 57 -18 l53
-14 40 87 c22 47 59 124 81 171 23 47 41 88 41 92 1 9 -301 208 -314 208 -5 0
-11 -4 -14 -8z"/>
<path d="M25992 56543 c-28 -81 -49 -149 -47 -151 4 -4 124 -41 478 -149 82
-24 150 -43 152 -41 2 2 -16 44 -40 93 -48 101 -25 80 -319 284 -87 61 -162
111 -166 111 -4 0 -30 -66 -58 -147z"/>
<path d="M24420 56430 c0 -20 176 -195 183 -183 3 5 -37 52 -89 104 -51 51
-94 87 -94 79z"/>
<path d="M24240 56303 c0 -54 -7 -163 -15 -243 -29 -277 -29 -284 -11 -299 21
-17 17 -33 71 274 25 143 48 267 51 276 3 11 -11 29 -40 53 -24 20 -47 36 -50
36 -3 0 -6 -44 -6 -97z"/>
<path d="M24362 56017 c-24 -144 -46 -274 -49 -289 -5 -24 2 -31 68 -74 41
-26 86 -56 102 -66 l27 -19 0 52 c0 75 37 135 114 184 34 21 63 40 65 42 2 2
-3 11 -12 20 -41 46 -107 169 -107 199 0 26 -16 51 -77 123 -42 50 -79 91 -82
91 -3 0 -25 -118 -49 -263z"/>
<path d="M24190 55702 c0 -13 23 -32 39 -32 11 0 10 4 -4 20 -19 21 -35 26
-35 12z"/>
<path d="M24171 55553 c-6 -54 -16 -127 -21 -163 -18 -128 -19 -140 -12 -140
4 0 22 71 41 158 19 86 38 165 44 176 7 14 3 24 -16 43 l-24 25 -12 -99z"/>
<path d="M24300 55643 c0 -12 190 -126 197 -119 8 7 15 1 -90 69 -85 55 -107
65 -107 50z"/>
<path d="M24757 54922 c-28 -325 -43 -488 -52 -569 -3 -25 0 -43 5 -43 6 0 10
4 10 8 0 5 101 143 225 308 123 164 225 308 224 319 0 29 -31 61 -163 170
-100 82 -185 135 -214 135 -4 0 -20 -147 -35 -328z"/>
<path d="M41077 63983 c-4 -3 -7 -1400 -7 -3104 0 -2377 3 -3100 12 -3105 6
-4 70 -11 142 -16 240 -16 261 -18 336 -28 85 -11 124 -15 300 -29 69 -6 132
-15 141 -20 8 -5 60 -12 115 -16 54 -4 104 -10 109 -14 6 -3 51 -11 100 -18
121 -16 262 -39 365 -58 47 -9 126 -22 175 -30 50 -8 99 -17 110 -20 21 -5
136 -27 245 -46 36 -6 70 -15 75 -19 6 -4 39 -11 75 -15 35 -4 71 -11 80 -16
8 -4 35 -13 60 -18 25 -5 63 -15 85 -21 22 -6 49 -12 60 -13 39 -5 140 -29
162 -40 13 -6 25 -8 28 -5 3 3 36 -3 73 -14 37 -11 92 -25 122 -32 30 -7 62
-15 70 -18 16 -7 74 -22 155 -42 28 -7 57 -15 65 -18 69 -26 109 -38 125 -38
11 0 58 -13 104 -30 46 -16 86 -28 90 -27 10 3 155 -45 169 -56 7 -5 15 -7 18
-4 5 5 95 -23 164 -50 8 -3 19 -5 24 -4 4 1 13 -2 20 -7 6 -5 72 -28 146 -51
74 -23 144 -46 155 -51 11 -4 29 -11 40 -15 29 -11 159 -59 240 -90 39 -14 90
-33 115 -41 25 -8 54 -19 65 -24 11 -5 45 -19 75 -31 129 -49 197 -77 230 -92
19 -9 67 -28 105 -42 39 -14 93 -37 120 -50 28 -13 84 -38 125 -55 41 -18 98
-42 125 -55 28 -13 84 -37 125 -55 69 -30 271 -125 330 -156 14 -7 36 -19 50
-25 37 -17 203 -98 220 -108 8 -4 29 -15 45 -24 17 -9 46 -24 65 -32 19 -9 44
-21 55 -27 11 -6 49 -27 85 -46 111 -58 412 -222 468 -255 30 -18 78 -45 107
-62 101 -56 220 -126 265 -155 25 -16 77 -47 115 -70 91 -54 189 -118 501
-325 141 -93 266 -177 279 -185 12 -8 49 -34 81 -58 33 -23 82 -58 109 -77 28
-19 77 -55 110 -80 33 -24 78 -57 100 -72 22 -15 63 -46 90 -68 28 -23 66 -52
85 -65 19 -13 51 -37 71 -54 19 -17 46 -38 59 -46 12 -8 56 -42 96 -75 40 -33
103 -82 139 -110 37 -27 108 -87 159 -132 52 -46 97 -83 101 -83 11 0 380
-326 618 -546 181 -168 987 -981 987 -995 0 -6 53 -69 118 -140 159 -175 282
-316 282 -324 0 -4 37 -49 83 -100 78 -89 150 -179 172 -214 6 -9 35 -45 66
-81 31 -36 68 -81 81 -102 14 -20 46 -61 71 -91 26 -30 47 -57 47 -61 0 -5 19
-31 43 -59 24 -29 55 -70 70 -92 15 -22 47 -67 72 -100 45 -59 59 -80 164
-232 30 -43 57 -80 61 -83 5 -4 70 -99 119 -173 8 -12 35 -53 60 -91 76 -113
118 -178 152 -236 18 -30 49 -77 69 -105 34 -46 86 -130 119 -193 8 -15 32
-54 53 -86 22 -33 48 -76 59 -95 11 -20 31 -54 44 -76 13 -22 31 -53 40 -70 9
-16 31 -55 50 -85 41 -68 192 -342 257 -470 54 -104 57 -111 81 -155 9 -16 46
-91 83 -165 37 -74 73 -146 81 -160 7 -14 21 -41 29 -60 9 -19 42 -88 75 -152
32 -65 59 -122 59 -127 0 -6 18 -49 41 -98 55 -119 74 -160 96 -213 11 -25 33
-76 50 -115 17 -38 41 -95 53 -125 12 -30 28 -68 35 -85 7 -16 23 -55 34 -85
12 -30 26 -64 30 -75 27 -63 82 -206 94 -245 22 -67 47 -133 59 -154 5 -10 21
-52 34 -94 14 -42 29 -81 33 -87 4 -5 18 -44 30 -85 12 -41 26 -84 31 -95 5
-11 14 -40 21 -65 6 -25 20 -62 30 -83 11 -21 19 -43 18 -50 -1 -7 1 -20 4
-29 43 -113 55 -153 51 -160 -3 -4 2 -18 11 -31 13 -21 43 -115 49 -157 1 -8
5 -22 8 -30 4 -8 16 -49 28 -90 12 -41 25 -86 30 -100 5 -14 12 -41 16 -60 3
-19 10 -39 14 -45 4 -5 11 -30 15 -55 4 -25 18 -74 30 -110 13 -36 27 -87 31
-115 3 -27 12 -64 19 -81 7 -17 16 -55 20 -85 4 -30 11 -58 15 -64 10 -12 31
-100 35 -140 3 -38 14 -84 25 -110 5 -11 12 -40 16 -65 3 -25 9 -49 13 -55 3
-5 11 -39 18 -75 6 -36 19 -96 28 -135 9 -38 21 -97 26 -130 5 -33 12 -69 16
-80 4 -11 8 -31 10 -45 1 -14 7 -52 12 -85 6 -33 13 -73 15 -90 3 -16 8 -43
11 -60 3 -16 8 -46 11 -65 3 -19 9 -44 14 -55 4 -11 13 -60 19 -110 5 -49 17
-135 26 -190 9 -55 20 -140 25 -190 6 -49 15 -106 20 -125 10 -33 29 -217 33
-322 1 -25 5 -50 10 -54 4 -4 7 -33 7 -64 0 -31 3 -60 7 -63 3 -4 7 -40 9 -79
9 -230 26 -466 36 -483 8 -14 13 -187 16 -562 l5 -543 3079 0 c2727 0 3079 -2
3084 -15 18 -47 24 9 24 228 0 248 -22 899 -40 1202 -30 503 -85 1101 -140
1515 -103 776 -205 1361 -350 2020 -4 19 -13 58 -18 85 -36 172 -191 796 -251
1010 -16 55 -41 145 -56 200 -31 113 -138 470 -185 620 -124 393 -262 796
-375 1095 -26 69 -56 150 -67 180 -82 227 -358 893 -490 1185 -196 431 -162
360 -372 785 -216 438 -381 754 -522 998 -30 52 -54 95 -54 97 0 19 -447 764
-630 1050 -1274 1990 -2811 3736 -4605 5229 -1493 1242 -3154 2299 -4884 3105
-254 119 -295 138 -453 207 -84 36 -171 74 -193 84 -326 144 -953 391 -1360
535 -193 69 -651 223 -790 265 -55 17 -156 49 -225 70 -357 110 -874 251
-1270 346 -977 234 -1948 403 -2900 504 -403 42 -563 56 -920 80 -346 23 -305
22 -313 13z m11913 -8148 c30 -31 79 -72 108 -92 28 -20 52 -43 52 -51 0 -12
10 -13 63 -6 86 12 366 10 462 -3 152 -22 220 -35 245 -47 14 -7 69 -34 124
-61 105 -51 218 -135 278 -205 49 -56 107 -178 154 -320 62 -190 100 -253 249
-409 238 -249 252 -266 300 -339 121 -189 174 -371 175 -600 0 -155 -29 -259
-177 -637 -41 -104 -81 -210 -89 -235 -64 -196 -78 -254 -105 -425 -21 -135 4
-287 75 -440 20 -43 36 -82 36 -88 0 -21 178 -246 252 -319 89 -87 224 -191
311 -240 32 -18 86 -51 120 -73 121 -77 163 -101 227 -129 36 -16 103 -46 149
-68 133 -63 206 -96 273 -124 35 -14 106 -48 158 -75 84 -43 197 -96 370 -176
30 -14 168 -81 306 -149 138 -68 253 -124 256 -124 3 0 71 -35 150 -78 80 -43
172 -87 204 -97 32 -11 67 -28 77 -39 11 -10 49 -32 85 -48 35 -16 88 -47 116
-67 28 -21 62 -42 76 -47 60 -21 396 -267 488 -357 141 -139 237 -257 284
-352 44 -87 105 -236 133 -319 27 -83 67 -318 115 -679 15 -116 13 -241 -6
-285 -15 -35 -16 -36 -30 -18 -8 11 -14 24 -14 28 0 5 -11 25 -24 46 -14 20
-34 73 -46 117 -12 44 -24 87 -26 95 -2 8 -17 70 -33 138 -16 68 -34 129 -39
135 -5 7 -13 32 -17 57 -7 43 -21 101 -46 185 -14 50 -62 147 -100 202 -16 23
-29 46 -29 51 0 13 -211 216 -295 283 -115 93 -353 230 -600 345 -173 80 -203
93 -280 123 -44 18 -89 36 -100 41 -44 19 -248 91 -385 135 -80 26 -170 55
-200 65 -48 16 -113 35 -235 71 -16 4 -111 33 -210 64 -99 31 -193 60 -210 65
-440 131 -772 252 -955 348 -58 31 -128 67 -156 82 -100 52 -369 273 -460 376
-205 237 -308 420 -383 689 -76 272 -73 635 8 945 43 167 79 276 126 385 46
105 170 419 186 469 11 34 24 75 30 91 5 17 16 67 24 112 13 72 13 90 0 154
-8 39 -22 86 -31 105 -9 18 -17 43 -18 57 -8 67 -276 372 -404 459 -71 48
-206 118 -227 118 -16 0 -155 46 -208 69 -27 11 -76 42 -110 68 -82 62 -259
243 -308 315 -64 93 -146 257 -174 348 -58 185 -60 187 -170 262 -55 37 -101
74 -103 82 -4 19 66 96 87 96 9 0 41 -25 71 -55z"/>
<path d="M30098 53713 c-151 -3 -158 -4 -170 -26 -18 -31 -25 -3367 -8 -3657
6 -107 13 -196 15 -199 3 -2 14 4 25 14 19 17 21 17 72 -1 49 -17 99 -19 598
-24 300 -3 550 -8 556 -12 18 -12 24 -99 39 -513 7 -190 34 -802 44 -1010 12
-230 33 -715 36 -825 1 -41 12 -298 24 -570 13 -272 24 -538 25 -590 2 -52 8
-189 14 -305 7 -115 16 -322 22 -460 6 -137 17 -389 25 -560 7 -170 14 -331
14 -356 l1 -46 -102 -79 c-101 -78 -229 -177 -534 -411 -87 -67 -202 -155
-254 -196 -52 -40 -203 -156 -335 -257 -132 -100 -285 -218 -340 -261 -108
-85 -465 -358 -690 -528 -77 -58 -232 -177 -345 -265 -113 -88 -268 -208 -345
-266 -77 -59 -233 -178 -346 -266 -114 -87 -336 -258 -494 -379 -158 -121
-322 -247 -365 -280 -196 -151 -416 -320 -554 -423 -218 -163 -375 -295 -376
-313 0 -17 55 -95 155 -219 33 -41 89 -113 123 -160 35 -47 100 -134 145 -195
45 -60 127 -173 181 -250 174 -245 279 -385 290 -386 36 -4 64 5 82 27 11 14
48 38 82 54 53 25 218 132 387 251 28 19 97 68 155 109 196 137 231 162 361
253 71 51 158 112 194 137 36 25 113 79 170 120 124 89 185 131 320 224 55 38
183 128 285 201 102 73 235 166 295 208 150 103 278 192 420 293 66 46 149
104 185 128 36 24 97 66 135 93 39 28 201 141 360 253 160 112 344 242 410
288 66 47 185 131 265 187 80 56 224 157 320 225 152 108 341 240 570 399 36
24 112 78 170 119 58 41 117 83 132 93 104 72 210 148 318 225 69 50 184 130
255 179 177 120 218 149 380 264 77 55 177 126 223 158 46 32 112 78 147 103
36 25 131 91 212 148 81 57 202 142 268 188 66 46 228 159 360 251 132 91 256
178 275 193 39 30 310 223 410 291 140 97 241 167 486 339 98 69 203 142 233
164 31 21 130 91 221 156 286 202 353 250 420 296 36 24 118 81 182 127 64 45
190 133 280 196 90 63 199 140 243 171 44 31 150 106 235 166 85 61 224 159
308 219 175 125 160 114 467 329 127 88 306 214 400 280 93 67 193 137 221
156 28 19 80 56 115 81 35 25 143 101 239 169 96 68 204 144 240 170 36 25
110 78 165 117 55 38 195 137 310 218 223 158 348 243 369 251 12 5 56 -21
446 -261 96 -59 274 -168 395 -243 121 -74 294 -181 385 -237 91 -56 237 -146
325 -200 228 -140 306 -188 515 -317 102 -63 268 -166 370 -228 102 -62 269
-166 372 -229 103 -64 268 -165 365 -225 98 -60 189 -116 203 -125 14 -9 53
-32 88 -51 63 -35 584 -347 677 -405 28 -17 129 -78 225 -135 96 -57 200 -119
230 -137 68 -42 214 -130 255 -153 17 -10 86 -51 155 -92 69 -41 140 -83 157
-94 18 -10 86 -51 150 -90 65 -40 226 -136 358 -214 132 -79 283 -169 335
-201 52 -32 158 -95 235 -140 77 -45 158 -93 180 -106 22 -14 240 -144 485
-290 245 -146 526 -313 625 -373 99 -59 196 -117 215 -127 45 -26 131 -78 195
-118 53 -34 460 -277 635 -380 58 -34 191 -114 295 -177 105 -64 206 -125 225
-136 68 -38 526 -315 582 -351 45 -28 256 -154 338 -201 37 -21 187 -110 448
-266 155 -93 332 -198 392 -234 61 -36 165 -98 232 -139 136 -82 301 -181 788
-471 179 -106 377 -225 440 -263 63 -38 134 -80 157 -93 97 -55 919 -551 994
-600 36 -24 76 -48 90 -54 13 -5 85 -47 159 -91 74 -45 181 -109 238 -143 175
-104 203 -120 349 -209 78 -48 144 -87 147 -87 2 0 35 -20 73 -45 37 -25 70
-40 71 -35 4 11 -56 80 -117 135 -20 18 -122 99 -227 181 -105 82 -233 183
-285 225 -52 41 -179 142 -284 224 -104 83 -213 168 -241 190 -28 22 -131 103
-229 180 -98 77 -303 239 -456 360 -153 121 -356 281 -451 356 -95 75 -303
240 -462 365 -159 126 -355 281 -436 344 -188 147 -629 495 -784 619 -65 53
-182 146 -260 206 -78 61 -191 148 -250 195 -59 47 -133 105 -164 129 -32 24
-122 95 -202 159 -159 127 -201 160 -347 274 -54 42 -174 137 -268 211 -93 74
-305 241 -470 371 -165 130 -347 274 -405 319 -371 295 -503 399 -562 444 -37
28 -165 129 -285 225 -120 96 -256 203 -301 238 -74 57 -287 225 -698 550 -67
52 -199 157 -295 232 -96 76 -287 227 -424 335 -138 109 -300 236 -359 283
-60 47 -201 158 -315 248 -113 89 -264 208 -336 264 -177 139 -325 255 -460
363 -62 50 -159 126 -216 170 -56 44 -175 139 -265 210 -168 135 -236 188
-415 328 -148 115 -484 380 -739 582 -118 94 -285 226 -370 292 -247 194 -601
474 -774 611 -192 153 -358 284 -406 320 -20 15 -130 101 -244 192 -681 538
-813 640 -829 640 -7 0 -235 -171 -507 -380 -272 -209 -580 -445 -685 -525
-104 -80 -239 -183 -300 -230 -60 -47 -153 -118 -205 -158 -52 -39 -191 -146
-309 -237 -117 -91 -243 -188 -280 -215 -205 -156 -410 -314 -616 -473 -69
-53 -858 -658 -1124 -862 -75 -58 -201 -154 -280 -215 -313 -241 -439 -338
-511 -392 -41 -32 -136 -104 -210 -162 -74 -58 -218 -168 -320 -245 -102 -77
-212 -160 -245 -186 -119 -91 -195 -141 -210 -138 -14 3 -15 149 -15 1343 0
1322 1 1386 30 1418 15 17 73 20 625 32 264 5 369 16 397 42 16 14 17 136 18
1859 l0 1844 -45 29 c-91 58 -46 56 -1555 56 -762 0 -1407 -1 -1435 -2 -27 -1
-590 -1 -1250 0 -660 2 -1271 1 -1357 0z"/>
<path d="M31810 41506 c-204 -27 -361 -84 -453 -166 -121 -107 -213 -292 -261
-520 -33 -158 -118 -560 -138 -655 -17 -78 -22 -135 -22 -255 -1 -139 2 -161
22 -212 51 -127 224 -268 642 -523 314 -191 489 -329 506 -399 9 -36 -70 -427
-95 -471 -33 -59 -62 -65 -303 -65 -119 0 -228 4 -242 10 -14 5 -33 21 -42 36
-17 25 -17 31 5 133 21 100 64 303 77 364 l7 27 -436 0 -435 0 -12 -52 c-19
-89 -60 -279 -75 -353 -8 -38 -28 -137 -44 -218 -73 -352 -23 -549 162 -636
159 -74 270 -84 948 -78 577 5 590 6 764 52 251 67 420 274 495 605 11 52 25
113 30 135 5 22 23 108 40 190 17 83 42 202 55 265 60 284 61 444 4 577 -44
104 -266 276 -644 498 -290 170 -463 303 -506 387 l-20 39 20 97 c11 53 32
153 46 222 44 208 47 210 347 210 119 0 228 -4 242 -10 14 -5 32 -20 41 -34
18 -26 18 -24 -65 -415 -11 -52 -20 -98 -20 -103 0 -4 189 -8 420 -8 l420 0 4
23 c3 12 25 119 50 237 99 468 106 510 106 620 -1 158 -26 241 -97 314 -69 70
-190 113 -385 135 -134 15 -1033 13 -1158 -3z"/>
<path d="M34195 41498 c-2 -13 -27 -131 -55 -263 -27 -132 -52 -249 -55 -260
-2 -11 -22 -105 -44 -210 -22 -104 -65 -308 -95 -452 -31 -145 -81 -381 -111
-525 -76 -361 -90 -426 -119 -558 -14 -63 -48 -225 -76 -360 -28 -135 -57
-272 -65 -305 -7 -33 -19 -87 -25 -120 -6 -33 -24 -116 -40 -185 -16 -69 -59
-264 -95 -435 -37 -170 -69 -320 -72 -333 l-5 -22 1012 2 1013 3 13 55 c21 89
143 663 146 688 l3 22 -555 3 -555 2 2 40 c1 22 7 58 12 80 6 22 24 108 41
190 17 83 36 170 41 195 6 25 25 115 43 200 l32 155 484 5 484 5 33 150 c18
83 46 215 63 295 16 80 39 183 49 230 10 47 18 86 16 88 -1 2 -211 3 -466 3
-264 -1 -470 3 -478 8 -15 10 -11 38 69 411 17 80 35 163 39 185 38 181 53
250 57 257 3 4 257 8 564 8 l560 0 5 23 c5 20 23 105 61 287 8 41 33 157 55
257 21 101 39 187 39 193 0 7 -332 10 -1010 10 l-1010 0 -5 -22z"/>
<path d="M36395 41508 c-2 -7 -24 -112 -50 -233 -25 -121 -59 -282 -76 -358
-16 -76 -29 -144 -29 -152 0 -13 52 -15 360 -15 304 0 361 -2 366 -14 3 -8
-10 -88 -30 -178 -32 -148 -62 -291 -185 -873 -22 -104 -63 -298 -91 -430 -29
-132 -69 -323 -90 -425 -21 -102 -64 -302 -95 -445 -31 -143 -69 -323 -85
-400 -52 -248 -99 -469 -106 -492 l-6 -23 451 0 451 0 5 23 c3 12 12 54 19 92
8 39 32 156 54 260 38 177 70 329 142 665 23 110 90 426 131 615 22 103 72
342 118 565 28 135 56 263 61 285 5 22 35 159 65 305 62 294 70 330 88 410
l13 55 371 3 371 2 6 28 c13 59 27 123 55 257 16 77 46 216 65 309 20 93 36
171 36 173 0 1 -536 3 -1190 3 -944 0 -1191 -3 -1195 -12z"/>
<path d="M39560 41506 c-199 -26 -359 -84 -447 -160 -101 -88 -197 -258 -242
-426 -17 -65 -43 -186 -71 -325 -5 -22 -38 -179 -75 -350 -36 -170 -84 -393
-105 -495 -22 -102 -51 -239 -65 -305 -14 -66 -30 -140 -35 -165 -5 -25 -23
-108 -39 -185 -16 -77 -45 -216 -65 -310 -150 -695 -156 -730 -156 -858 0
-271 90 -373 383 -435 72 -15 154 -17 682 -17 628 0 652 1 825 47 194 50 323
157 420 348 58 114 76 185 226 900 24 118 49 233 54 255 5 22 35 159 65 305
73 346 155 733 201 945 20 94 40 188 44 210 4 22 22 108 39 190 56 258 63 313
59 420 -11 248 -104 346 -385 402 -105 21 -1164 28 -1313 9z m684 -766 c14 -5
32 -20 41 -34 16 -23 15 -34 -14 -173 -39 -185 -82 -392 -116 -548 -14 -66
-30 -140 -35 -165 -17 -83 -70 -334 -95 -455 -15 -66 -40 -185 -57 -265 -17
-80 -34 -163 -39 -185 -43 -202 -72 -339 -94 -445 -48 -230 -48 -230 -340
-230 -228 0 -253 5 -269 52 -11 30 -9 39 74 428 17 80 53 253 80 385 28 132
55 258 60 280 5 22 42 191 80 375 153 727 177 840 190 890 10 39 53 85 85 93
38 9 424 7 449 -3z"/>
<path d="M41975 41508 c-3 -11 -69 -320 -166 -783 -17 -77 -41 -192 -54 -255
-25 -117 -78 -369 -95 -450 -5 -25 -17 -76 -25 -115 -9 -38 -22 -101 -30 -140
-8 -38 -26 -124 -40 -190 -32 -148 -35 -166 -73 -345 -37 -175 -84 -393 -119
-555 -14 -66 -29 -138 -33 -160 -9 -47 -86 -412 -100 -470 -11 -47 -17 -75
-75 -350 -25 -115 -45 -213 -45 -217 0 -11 887 -10 894 0 3 5 28 116 56 248
28 131 64 302 81 379 16 77 41 194 55 260 30 142 67 319 92 430 l17 80 256 3
c347 3 337 13 278 -254 -27 -127 -118 -551 -204 -963 -19 -90 -35 -170 -35
-178 0 -11 76 -13 447 -11 l447 3 28 135 c16 74 33 153 37 175 5 22 18 85 30
140 28 136 137 647 153 715 7 30 13 111 13 180 0 114 -3 130 -27 183 -33 69
-114 153 -190 196 -100 56 -101 74 -6 122 138 69 258 165 319 255 36 53 85
158 102 219 9 33 53 231 97 440 44 209 85 399 90 423 60 254 78 450 51 552
-48 184 -153 254 -443 295 -141 20 -1776 22 -1783 3z m1258 -769 c14 -6 31
-22 38 -35 15 -28 21 6 -106 -589 -14 -66 -37 -176 -51 -245 -28 -134 -48
-180 -89 -198 -18 -8 -107 -12 -280 -12 l-255 0 0 25 c0 14 9 67 21 118 21 94
63 293 144 682 25 121 50 230 55 243 10 22 10 22 254 22 158 0 254 -4 269 -11z"/>
<path d="M45742 41483 c-5 -21 -31 -139 -57 -263 -25 -124 -57 -274 -70 -335
-13 -60 -49 -229 -80 -375 -31 -146 -85 -400 -120 -565 -35 -165 -89 -417
-119 -560 -30 -143 -87 -411 -126 -595 -39 -184 -96 -452 -126 -595 -30 -143
-59 -278 -64 -300 -5 -22 -26 -116 -45 -210 -20 -93 -39 -180 -42 -193 l-5
-23 908 4 c978 4 958 3 1139 58 180 54 297 155 384 333 62 125 85 209 182 671
33 161 73 348 95 450 31 146 74 353 114 540 16 77 45 217 65 310 69 320 94
440 134 630 22 105 54 255 71 335 53 249 42 422 -36 539 -59 90 -176 140 -392
167 -93 11 -286 14 -959 14 l-842 0 -9 -37z m1262 -743 c15 -5 32 -21 38 -35
12 -28 5 -75 -57 -365 -14 -63 -39 -180 -56 -260 -41 -195 -41 -197 -88 -420
-23 -107 -60 -280 -82 -385 -21 -104 -55 -262 -74 -350 -19 -88 -52 -248 -75
-355 -57 -276 -62 -289 -127 -316 -48 -21 -511 -20 -519 0 -5 13 14 112 91
471 32 150 67 319 145 690 33 160 64 308 70 330 13 56 24 110 76 355 24 118
49 233 54 255 8 33 34 157 70 336 3 19 10 41 14 47 9 15 482 17 520 2z"/>
<path d="M48696 41338 c-21 -101 -67 -318 -102 -483 -35 -165 -73 -340 -83
-390 -11 -49 -38 -178 -61 -285 -22 -107 -47 -224 -55 -260 -8 -36 -33 -153
-55 -260 -22 -107 -45 -213 -50 -235 -5 -22 -30 -139 -55 -260 -25 -121 -50
-238 -55 -260 -5 -22 -34 -159 -65 -305 -30 -146 -62 -292 -70 -325 -8 -33
-24 -100 -34 -150 -46 -219 -131 -612 -137 -632 l-6 -23 1011 0 1011 0 9 23
c5 12 34 142 65 289 31 147 65 309 76 359 11 51 18 94 16 96 -2 2 -251 4 -554
3 -384 0 -553 3 -557 10 -4 6 0 41 9 78 14 62 63 290 122 577 13 66 30 139 36
163 l11 42 478 0 c278 0 480 4 483 9 4 5 29 117 56 248 49 233 62 293 80 363
8 33 24 126 25 143 0 4 -214 9 -475 10 l-475 2 1 30 c0 17 15 95 32 175 50
234 81 378 103 485 11 55 25 117 30 137 l10 38 562 2 561 3 32 150 c30 147 68
324 105 495 10 47 18 93 19 103 0 16 -54 17 -1008 17 l-1007 0 -39 -182z"/>
<path d="M17340 39183 c0 -34 41 -393 76 -668 33 -260 61 -457 84 -600 40
-252 102 -613 115 -680 8 -38 28 -142 45 -230 80 -417 240 -1111 331 -1440 82
-297 171 -614 178 -635 5 -14 19 -59 31 -100 88 -301 291 -912 417 -1250 166
-450 370 -961 474 -1188 16 -34 29 -65 29 -67 0 -5 99 -227 160 -360 18 -38
42 -92 55 -120 160 -351 503 -1030 690 -1365 23 -41 57 -102 75 -135 316 -577
823 -1386 1234 -1970 211 -299 517 -713 661 -895 29 -36 114 -144 190 -240
337 -426 772 -929 1185 -1370 166 -177 712 -727 905 -911 732 -697 1654 -1457
2455 -2024 69 -48 148 -105 175 -125 82 -60 526 -357 738 -493 831 -535 1797
-1068 2682 -1477 185 -86 421 -193 465 -210 25 -10 70 -29 100 -43 125 -57
492 -209 700 -290 184 -72 358 -138 575 -217 235 -86 571 -200 870 -295 374
-118 594 -183 950 -279 213 -57 785 -199 905 -225 415 -89 531 -113 730 -151
91 -17 185 -35 210 -41 40 -8 495 -84 660 -109 154 -24 590 -83 770 -104 440
-52 1371 -129 1385 -114 3 3 8 5188 5 6166 0 9 -26 12 -92 13 -51 0 -133 5
-183 10 -49 6 -115 12 -145 15 -30 2 -86 9 -125 15 -38 6 -101 13 -140 15 -67
4 -223 24 -350 44 -33 5 -80 12 -105 14 -74 7 -214 31 -225 37 -5 4 -48 10
-95 14 -47 4 -89 10 -95 13 -12 8 -122 29 -224 42 -41 6 -79 14 -85 19 -6 5
-58 14 -116 21 -58 7 -109 16 -115 20 -11 8 -69 21 -100 21 -10 0 -24 4 -30 8
-5 5 -28 11 -50 15 -22 3 -49 8 -60 11 -11 2 -49 12 -85 20 -36 9 -78 19 -95
21 -16 3 -37 8 -45 11 -18 7 -23 8 -115 27 -38 8 -95 22 -125 31 -30 9 -64 18
-75 20 -84 17 -122 27 -137 35 -10 6 -26 10 -36 10 -10 0 -22 4 -27 9 -6 4
-39 14 -75 21 -36 6 -69 15 -75 20 -12 9 -67 24 -79 21 -5 -1 -50 11 -100 28
-225 72 -287 91 -304 91 -10 0 -22 4 -27 9 -6 4 -91 34 -190 66 -99 31 -189
61 -200 65 -11 5 -47 18 -80 29 -60 20 -171 61 -295 108 -36 14 -83 31 -105
37 -22 7 -51 17 -65 23 -38 16 -182 74 -205 82 -11 4 -40 17 -65 28 -94 42
-121 53 -130 53 -6 0 -56 21 -112 46 -117 52 -130 58 -248 109 -47 20 -112 50
-145 66 -34 16 -65 29 -69 29 -8 0 -182 82 -246 116 -14 7 -41 21 -60 30 -133
64 -343 169 -370 185 -8 5 -73 39 -144 76 -218 115 -398 215 -571 318 -49 30
-110 65 -135 77 -42 22 -167 99 -251 154 -19 13 -39 24 -43 24 -5 0 -25 14
-46 30 -21 17 -41 30 -44 30 -4 0 -19 8 -34 19 -61 41 -387 257 -403 266 -23
12 -166 111 -239 165 -30 22 -77 56 -105 75 -93 64 -140 98 -172 124 -17 14
-66 51 -108 81 -42 30 -94 69 -114 85 -21 17 -53 41 -71 55 -19 14 -61 48 -94
75 -33 28 -68 55 -77 60 -27 17 -115 85 -210 165 -49 41 -130 109 -179 150
-50 41 -136 116 -191 165 -55 50 -115 101 -134 115 -150 109 -1149 1106 -1362
1358 -15 19 -74 84 -130 147 -57 62 -103 116 -103 120 0 4 -37 49 -82 100
-106 120 -190 222 -202 243 -5 9 -35 49 -67 87 -77 93 -93 113 -129 160 -16
22 -39 51 -50 65 -75 93 -190 248 -190 256 0 3 -20 29 -45 57 -25 29 -45 57
-45 63 0 6 -7 17 -15 24 -8 6 -31 37 -52 67 -21 30 -58 84 -83 119 -25 35 -67
96 -95 136 -27 40 -53 74 -57 76 -4 2 -15 20 -25 40 -9 20 -41 69 -70 108 -29
40 -53 74 -53 78 0 3 -20 35 -45 72 -25 36 -45 67 -45 70 0 3 -26 44 -57 92
-77 116 -82 124 -90 142 -4 8 -10 17 -13 20 -4 3 -18 25 -30 50 -12 25 -32 58
-44 74 -21 30 -72 116 -101 171 -8 17 -40 71 -70 120 -30 50 -71 121 -92 159
-103 186 -122 222 -178 327 -33 63 -67 130 -75 149 -9 19 -25 49 -36 67 -17
27 -66 122 -94 183 -4 8 -12 24 -17 35 -6 11 -18 36 -26 55 -9 19 -23 46 -30
60 -23 40 -147 304 -147 312 0 4 -16 42 -36 85 -61 131 -86 187 -99 218 -6 17
-26 59 -43 95 -18 36 -32 70 -32 74 0 5 -9 27 -19 50 -10 23 -26 61 -36 86
-17 46 -33 84 -59 143 -7 17 -19 48 -26 67 -7 19 -18 49 -25 65 -7 17 -19 48
-26 70 -7 22 -17 44 -21 50 -4 5 -8 16 -8 25 0 9 -9 35 -20 58 -11 22 -20 46
-20 51 0 6 -7 27 -16 48 -25 57 -31 74 -45 118 -6 22 -15 45 -19 50 -3 6 -17
44 -30 85 -31 100 -29 94 -62 185 -16 44 -30 87 -32 95 -8 38 -19 76 -26 85
-12 16 -40 108 -35 113 2 3 -4 21 -14 41 -17 33 -36 95 -45 146 -2 11 -13 49
-24 85 -12 36 -28 92 -37 125 -9 33 -23 78 -30 100 -7 22 -16 56 -20 75 -6 34
-28 103 -45 145 -5 11 -12 43 -15 70 -4 28 -11 58 -16 67 -5 10 -16 50 -23 90
-16 83 -34 154 -46 183 -5 11 -12 47 -15 79 -4 33 -11 66 -16 75 -9 17 -23 78
-43 181 -7 36 -15 72 -19 80 -7 17 -27 118 -32 170 -3 19 -9 53 -15 75 -14 48
-17 68 -29 165 -6 41 -15 91 -21 110 -14 49 -30 139 -41 245 -5 50 -13 97 -18
106 -5 9 -13 54 -16 100 -4 46 -12 89 -17 95 -5 7 -7 18 -6 25 4 19 -464 23
-3677 39 -1866 9 -2532 15 -2537 24 -4 6 -8 30 -8 54 0 23 -4 42 -10 42 -5 0
-10 -8 -10 -17z m7423 -8679 c40 -9 81 -17 92 -18 11 -1 27 -5 35 -8 8 -3 47
-15 85 -28 129 -42 315 -141 406 -218 164 -138 217 -191 319 -322 28 -36 54
-70 59 -76 33 -41 170 -311 185 -364 4 -14 11 -34 16 -45 4 -11 15 -49 24 -85
48 -204 55 -337 27 -512 -32 -196 -91 -359 -222 -623 -49 -99 -106 -209 -126
-245 -54 -95 -103 -193 -100 -197 2 -1 30 13 63 33 63 39 263 141 329 169 22
9 54 23 70 30 114 51 227 77 331 77 68 0 93 -6 160 -33 43 -18 87 -39 97 -47
20 -17 30 -13 132 53 53 34 238 177 305 235 36 31 85 71 108 88 80 57 132 111
132 137 0 13 11 36 23 51 42 48 107 31 142 -36 11 -21 11 -31 0 -57 -17 -40
-48 -57 -93 -49 -40 6 -72 -16 -197 -135 -38 -37 -142 -129 -230 -204 -88 -75
-171 -149 -183 -166 -22 -27 -23 -31 -9 -52 26 -38 57 -67 73 -67 19 0 174 74
344 165 74 40 176 94 225 120 50 27 108 58 130 70 28 15 41 29 43 47 4 31 37
64 73 73 21 5 33 0 63 -28 45 -43 47 -75 7 -119 -28 -32 -30 -32 -73 -21 -38
10 -47 9 -78 -9 -19 -11 -48 -29 -65 -38 -16 -10 -59 -35 -95 -57 -36 -22 -90
-53 -120 -69 -30 -15 -73 -43 -95 -60 -22 -17 -62 -44 -90 -59 -44 -25 -183
-112 -195 -122 -2 -2 -4 -56 -5 -121 -1 -153 -22 -211 -110 -295 -33 -33 -77
-68 -98 -78 -48 -25 -173 -37 -298 -28 -126 9 -238 2 -266 -16 -12 -8 -62 -49
-110 -91 -89 -76 -244 -162 -323 -179 -19 -4 -48 -13 -65 -20 -92 -39 -452
-71 -480 -43 -4 4 -13 4 -21 1 -8 -3 -22 -2 -31 3 -10 4 -29 9 -43 10 -257 22
-575 303 -1235 1094 -22 27 -87 104 -145 172 -99 115 -137 162 -250 308 -25
32 -72 93 -105 135 -33 42 -67 87 -75 99 -8 13 -32 43 -52 67 -20 24 -47 58
-60 76 -21 29 -351 466 -445 588 -21 28 -60 78 -88 112 -129 159 -177 249
-181 338 -2 55 0 61 31 92 30 30 38 33 96 33 69 0 126 -14 202 -50 60 -28 77
-45 212 -204 61 -71 120 -141 132 -155 18 -21 22 -23 23 -9 0 25 55 140 108
228 164 269 491 528 832 657 35 13 69 27 75 31 5 4 39 15 75 25 224 62 408 75
573 41z"/>
<path d="M56199 38960 c-4 -3 -11 -33 -15 -65 -4 -33 -10 -65 -15 -70 -4 -6
-11 -51 -15 -100 -3 -50 -10 -94 -14 -100 -4 -5 -11 -37 -14 -70 -4 -33 -11
-71 -16 -85 -6 -14 -14 -61 -20 -105 -13 -103 -16 -122 -30 -170 -6 -22 -13
-56 -15 -75 -5 -46 -25 -151 -33 -170 -3 -8 -11 -44 -18 -80 -18 -95 -34 -162
-44 -185 -12 -28 -21 -75 -20 -105 0 -14 -4 -34 -9 -45 -11 -24 -28 -89 -47
-175 -7 -36 -20 -90 -29 -120 -8 -30 -15 -66 -15 -81 0 -14 -3 -29 -7 -33 -9
-9 -29 -71 -48 -146 -28 -110 -37 -145 -45 -160 -4 -9 -11 -31 -14 -50 -7 -33
-28 -100 -46 -145 -4 -11 -13 -47 -20 -80 -6 -33 -19 -73 -27 -89 -9 -16 -17
-36 -17 -45 -3 -25 -27 -105 -36 -116 -7 -9 -18 -46 -26 -85 -2 -8 -16 -51
-32 -95 -16 -44 -32 -87 -35 -95 -3 -8 -15 -49 -28 -90 -12 -41 -28 -86 -35
-100 -7 -14 -22 -52 -33 -85 -11 -34 -25 -74 -32 -90 -6 -17 -15 -40 -20 -52
-5 -13 -13 -33 -18 -45 -6 -13 -17 -43 -25 -68 -8 -25 -20 -58 -26 -75 -19
-46 -27 -67 -40 -105 -7 -19 -19 -51 -27 -70 -22 -49 -38 -87 -58 -140 -9 -25
-26 -62 -36 -83 -11 -22 -19 -44 -19 -50 0 -6 -14 -41 -32 -77 -17 -36 -37
-78 -43 -95 -7 -16 -24 -55 -39 -85 -14 -30 -26 -60 -26 -66 0 -7 -7 -17 -15
-24 -8 -7 -15 -20 -15 -29 0 -17 -10 -38 -109 -242 -33 -70 -61 -132 -61 -138
0 -5 -13 -32 -30 -58 -16 -26 -30 -54 -30 -62 0 -9 -9 -27 -20 -41 -11 -14
-20 -30 -20 -36 0 -10 -57 -121 -99 -194 -5 -8 -35 -67 -67 -130 -31 -63 -65
-128 -75 -145 -10 -16 -52 -93 -94 -170 -42 -77 -92 -165 -110 -195 -19 -30
-41 -68 -50 -85 -9 -16 -27 -48 -40 -70 -13 -22 -34 -58 -46 -80 -11 -22 -36
-62 -53 -90 -35 -53 -86 -137 -118 -194 -11 -19 -40 -63 -64 -99 -25 -35 -48
-70 -51 -79 -8 -19 -102 -163 -156 -238 -24 -33 -51 -77 -61 -97 -9 -20 -20
-38 -24 -40 -4 -2 -30 -36 -57 -75 -28 -40 -70 -102 -95 -137 -25 -35 -62 -89
-83 -119 -21 -30 -44 -61 -52 -67 -8 -7 -15 -18 -15 -24 0 -6 -20 -34 -45 -63
-25 -28 -45 -54 -45 -58 0 -4 -17 -29 -37 -56 -165 -216 -155 -204 -228 -291
-30 -37 -55 -70 -55 -74 0 -3 -24 -34 -53 -67 -30 -34 -58 -70 -63 -79 -11
-21 -93 -120 -200 -241 -44 -51 -85 -99 -90 -109 -5 -9 -53 -65 -107 -125 -54
-59 -110 -121 -124 -138 -203 -240 -1091 -1128 -1318 -1318 -16 -14 -81 -72
-143 -129 -63 -57 -121 -107 -130 -112 -10 -5 -51 -39 -94 -75 -183 -158 -349
-293 -387 -316 -17 -11 -128 -100 -174 -141 -15 -13 -31 -24 -35 -24 -5 0 -19
-11 -32 -25 -13 -14 -27 -25 -32 -25 -5 0 -43 -27 -86 -60 -103 -80 -226 -171
-302 -223 -79 -55 -135 -94 -215 -152 -49 -36 -97 -68 -105 -72 -8 -4 -90 -57
-181 -119 -92 -62 -181 -121 -199 -131 -48 -27 -62 -36 -100 -63 -19 -14 -47
-32 -62 -40 -77 -44 -99 -57 -162 -98 -39 -25 -91 -57 -117 -71 -63 -35 -210
-119 -229 -131 -56 -37 -251 -144 -477 -263 -70 -37 -135 -71 -143 -76 -8 -5
-31 -16 -50 -24 -19 -9 -48 -24 -65 -33 -16 -9 -37 -21 -45 -25 -23 -12 -171
-84 -210 -102 -19 -9 -46 -22 -60 -30 -53 -29 -237 -117 -246 -117 -4 0 -35
-13 -69 -29 -33 -16 -98 -46 -145 -66 -87 -38 -106 -46 -200 -88 -58 -25 -137
-58 -205 -84 -22 -9 -60 -25 -85 -36 -25 -11 -54 -24 -65 -27 -11 -4 -42 -17
-70 -28 -46 -20 -112 -45 -243 -92 -69 -25 -162 -60 -187 -70 -104 -40 -165
-61 -400 -138 -148 -49 -317 -103 -375 -121 -58 -18 -146 -46 -196 -62 -50
-17 -95 -29 -100 -28 -12 3 -67 -12 -79 -21 -5 -5 -39 -14 -75 -20 -36 -7 -69
-17 -74 -21 -6 -5 -18 -9 -28 -9 -10 0 -26 -4 -36 -10 -15 -8 -53 -18 -137
-35 -11 -2 -45 -11 -75 -20 -30 -9 -86 -23 -125 -31 -38 -8 -79 -16 -90 -19
-11 -3 -36 -8 -55 -11 -19 -3 -44 -9 -55 -14 -21 -9 -77 -23 -180 -44 -33 -7
-67 -15 -75 -18 -8 -4 -22 -7 -30 -7 -30 -1 -85 -14 -95 -21 -5 -4 -57 -13
-115 -20 -58 -7 -110 -17 -116 -21 -7 -5 -43 -12 -80 -16 -38 -3 -73 -9 -79
-13 -5 -5 -40 -11 -78 -15 -37 -4 -69 -11 -72 -15 -3 -5 -44 -11 -93 -15 -48
-4 -91 -10 -97 -14 -10 -6 -142 -28 -220 -37 -22 -2 -71 -9 -110 -14 -163 -24
-284 -39 -350 -44 -38 -2 -101 -9 -140 -15 -38 -6 -89 -11 -113 -10 -24 0 -57
-5 -75 -11 -28 -9 -210 -23 -442 -35 l-70 -3 -3 -3087 -2 -3087 87 6 c49 3
167 10 263 16 362 21 1117 92 1380 130 36 5 101 14 145 19 44 6 130 18 190 27
61 9 137 20 170 24 268 37 569 89 1000 171 313 60 617 126 960 209 773 186
1547 415 2250 665 88 31 171 60 185 65 146 45 957 366 1178 466 29 13 55 24
57 24 8 0 374 163 545 243 52 24 113 52 135 62 85 38 806 397 915 455 942 501
1690 961 2604 1604 335 237 817 606 1241 952 83 67 378 316 385 324 3 3 57 50
120 105 641 555 1421 1328 2016 1996 602 676 1223 1466 1709 2174 38 55 89
129 114 165 387 560 865 1351 1241 2055 21 39 59 111 85 160 54 100 395 782
395 788 0 3 29 65 63 138 35 74 81 172 102 219 20 47 51 114 67 150 52 113
207 478 260 609 27 69 56 140 63 156 134 306 485 1292 625 1760 10 33 32 105
48 160 155 510 342 1229 430 1650 6 28 25 115 42 195 17 80 40 192 51 250 12
58 31 159 44 225 74 372 170 990 225 1445 11 91 24 199 29 240 5 41 8 77 6 81
-3 3 -879 10 -1947 14 -1069 4 -2462 11 -3096 14 -635 3 -1158 4 -1163 1z
m-980 -8082 c85 -41 146 -92 178 -148 15 -25 36 -56 49 -70 41 -45 94 -182 94
-243 0 -30 7 -72 16 -93 44 -103 58 -284 27 -349 -14 -29 -15 -38 -3 -59 9
-18 11 -54 7 -133 -5 -106 -19 -164 -47 -198 -11 -13 -11 -21 -2 -36 19 -30
14 -61 -29 -191 -28 -84 -49 -129 -65 -143 -23 -20 -24 -21 -9 -63 16 -45 15
-64 -6 -214 -8 -57 -20 -93 -45 -134 -25 -41 -32 -62 -28 -84 13 -61 -144
-268 -229 -304 -20 -8 -36 -25 -44 -45 -11 -30 -10 -31 14 -31 49 0 205 -139
219 -194 3 -14 10 -26 16 -26 13 0 87 -83 107 -121 14 -25 28 -36 62 -45 24
-6 61 -18 82 -27 33 -14 38 -20 35 -44 -3 -25 -9 -29 -58 -41 -66 -15 -162 -8
-206 16 -55 30 -113 76 -120 96 -3 10 -32 44 -64 75 -31 31 -59 63 -62 71 -4
12 -16 10 -81 -9 -42 -12 -102 -25 -134 -28 -45 -5 -69 -14 -107 -42 l-49 -35
46 -11 c58 -13 158 -103 205 -186 18 -31 39 -62 47 -69 8 -7 15 -20 15 -29 0
-10 14 -27 30 -39 17 -13 58 -70 91 -127 34 -58 68 -105 76 -105 28 0 142 -60
162 -85 22 -29 19 -51 -7 -57 -9 -2 -56 -1 -103 2 -83 6 -89 8 -158 55 -40 27
-96 76 -127 110 -77 85 -89 97 -122 122 -30 23 -82 116 -82 148 0 16 -7 17
-70 12 -38 -3 -111 -1 -162 4 -81 8 -97 7 -125 -8 -18 -10 -33 -21 -33 -26 0
-4 20 -29 44 -55 24 -26 58 -74 76 -107 18 -33 41 -69 51 -81 10 -11 19 -26
19 -33 0 -8 15 -31 33 -52 56 -66 74 -93 104 -153 25 -51 34 -60 89 -87 34
-16 72 -29 85 -29 13 0 29 -4 36 -8 17 -11 34 -62 28 -82 -5 -17 -16 -18 -103
-13 -106 6 -152 21 -236 77 -75 50 -115 98 -159 191 -8 17 -26 40 -39 53 -14
13 -42 56 -64 97 -27 54 -43 75 -57 75 -10 0 -63 9 -117 20 l-99 20 -40 -21
c-22 -11 -45 -26 -51 -33 -14 -18 0 -54 45 -113 19 -25 35 -50 35 -54 0 -5 16
-42 35 -83 19 -41 35 -87 35 -101 0 -14 8 -34 18 -45 24 -26 96 -174 118 -244
17 -52 29 -69 101 -135 49 -45 83 -84 83 -95 0 -25 -38 -66 -61 -66 -9 0 -22
7 -29 15 -7 9 -32 20 -55 26 -30 8 -56 25 -87 58 -25 26 -52 50 -61 54 -20 8
-88 100 -112 152 -10 22 -26 51 -36 65 -9 14 -20 43 -24 63 -4 21 -16 42 -26
48 -26 14 -80 121 -99 199 l-16 64 -75 28 c-85 32 -137 56 -161 76 -14 11 -23
10 -68 -13 -34 -17 -61 -24 -78 -21 -20 4 -39 -3 -75 -29 l-47 -35 17 -28 c10
-14 25 -34 34 -43 55 -56 64 -229 17 -310 -75 -127 -197 -228 -317 -260 -43
-12 -75 -28 -100 -51 -171 -160 -288 -228 -392 -228 -25 0 -53 -10 -81 -28
-60 -40 -119 -66 -223 -99 -86 -27 -99 -28 -285 -28 -210 0 -256 8 -385 71
-79 39 -94 49 -146 98 -53 50 -60 73 -29 101 19 17 22 17 57 2 49 -22 209 -58
298 -68 163 -18 258 -6 315 41 l35 29 -30 12 c-16 6 -46 15 -65 19 -19 4 -82
19 -140 33 -142 35 -380 68 -460 65 l-65 -3 -3 31 c-3 27 4 37 50 74 86 69
148 96 348 155 125 37 227 73 350 125 245 103 635 80 782 -47 15 -14 23 -9 79
45 59 58 68 82 30 82 -47 0 -156 120 -174 192 -4 16 -20 34 -37 43 -16 8 -39
33 -50 55 -11 22 -23 40 -26 40 -2 0 -17 -9 -32 -19 -44 -31 -133 -42 -156
-20 -6 5 -17 9 -25 9 -24 0 -51 31 -51 59 0 15 9 44 20 66 11 21 18 40 16 42
-1 2 -19 -4 -39 -12 -20 -8 -63 -15 -95 -15 -57 0 -60 1 -86 38 -44 65 -34
136 25 178 21 15 39 29 38 33 0 3 -30 20 -67 38 -47 23 -77 45 -102 77 -30 39
-39 45 -60 39 -14 -3 -97 -7 -185 -9 -88 -1 -167 -5 -175 -8 -159 -62 -183
-68 -345 -75 -157 -6 -161 -7 -218 -40 -32 -18 -88 -64 -125 -103 -205 -215
-220 -226 -250 -196 -20 20 -13 75 19 145 108 241 201 396 276 464 40 37 146
96 193 109 138 37 330 30 427 -16 l51 -25 39 21 c40 21 223 60 279 60 17 0 44
-4 60 -9 16 -5 62 -19 102 -31 73 -22 99 -41 166 -121 l28 -34 -7 35 c-4 19
-8 125 -10 234 -4 219 2 250 51 262 36 9 90 -18 109 -55 16 -31 36 -172 54
-370 6 -63 15 -119 20 -124 25 -25 30 10 28 186 l-2 182 39 70 c72 131 159
197 237 180 31 -7 81 -70 93 -118 8 -35 19 -34 50 6 34 42 29 37 119 112 98
82 200 116 257 85 21 -11 72 -106 91 -169 7 -22 17 -41 23 -41 6 0 24 14 41
31 47 48 133 107 184 125 25 9 60 22 76 30 51 24 190 54 257 56 87 2 121 -16
184 -101 10 -13 16 -11 50 9 22 13 66 31 99 39 42 12 61 22 65 36 15 58 128
205 183 240 16 10 37 36 48 57 25 50 214 240 256 258 28 13 31 19 31 55 1 84
47 204 95 244 12 10 14 18 7 31 -25 47 -3 228 35 286 15 24 15 31 -4 113 -25
104 -27 188 -6 236 14 34 13 37 -14 68 -41 48 -71 131 -71 197 0 92 -17 93
-76 8 -87 -129 -268 -297 -377 -352 -107 -53 -210 -53 -190 1 3 8 22 22 43 33
42 21 96 79 112 119 6 16 7 63 3 121 -4 58 -2 114 5 144 12 57 67 144 127 202
39 38 47 41 114 48 44 4 85 14 104 25 46 29 99 26 174 -11z"/>
<path d="M54230 28570 c-12 -8 -11 -10 8 -10 12 0 22 5 22 10 0 13 -11 13 -30
0z"/>
<path d="M53969 28500 c-23 -22 -45 -40 -50 -40 -5 0 -9 -4 -9 -10 0 -16 97
-12 103 4 3 8 30 31 59 50 l53 36 -58 0 c-53 0 -60 -3 -98 -40z"/>
<path d="M53446 28511 c-3 -4 -19 -11 -36 -14 -24 -5 -34 -16 -51 -54 -12 -27
-32 -71 -45 -98 -13 -28 -24 -53 -24 -57 0 -3 37 -4 83 -1 89 6 132 24 162 69
14 22 15 28 3 42 -8 10 -25 40 -38 69 -24 49 -42 64 -54 44z"/>
<path d="M52976 28388 c-5 -15 -26 -200 -26 -223 0 -14 6 -16 27 -10 39 9 46
17 67 75 18 51 18 51 -2 73 -12 12 -28 39 -37 60 -16 39 -23 45 -29 25z"/>
<path d="M30027 36843 c-3 -5 -19 -75 -36 -158 -18 -82 -36 -170 -42 -195 -10
-47 -33 -155 -124 -590 -30 -146 -60 -283 -65 -305 -6 -22 -30 -139 -55 -260
-25 -121 -50 -238 -55 -260 -5 -22 -21 -94 -34 -160 -14 -66 -55 -259 -92
-430 -36 -170 -70 -330 -75 -355 -4 -25 -17 -88 -28 -140 -12 -52 -30 -140
-42 -195 -11 -55 -27 -127 -35 -160 -8 -33 -50 -229 -94 -435 -44 -206 -82
-381 -85 -387 -3 -10 203 -13 1010 -13 l1014 0 15 73 c9 39 25 115 36 167 11
52 32 149 46 215 42 192 63 300 59 303 -1 2 -247 3 -546 3 -299 -1 -550 3
-558 8 -13 8 -6 53 39 246 5 22 30 139 55 260 25 121 50 238 55 260 5 22 11
52 15 67 l5 28 482 2 482 3 8 30 c5 17 22 93 38 170 39 190 76 362 100 469 11
49 17 92 14 97 -3 5 -218 9 -480 9 -313 0 -474 3 -474 10 0 9 31 159 121 580
11 52 28 133 38 180 l18 85 563 5 564 5 33 155 c18 85 41 198 53 250 53 249
70 334 70 351 0 18 -29 19 -1004 19 -553 0 -1007 -3 -1009 -7z"/>
<path d="M32513 36838 c-12 -17 -26 -80 -184 -833 -22 -104 -44 -208 -49 -230
-5 -22 -30 -139 -55 -260 -25 -121 -50 -238 -55 -260 -9 -40 -131 -614 -236
-1110 -30 -143 -59 -278 -64 -300 -5 -22 -23 -107 -40 -190 -17 -82 -37 -177
-45 -210 -8 -33 -21 -96 -30 -139 -9 -44 -30 -143 -46 -220 -57 -261 -60 -278
-56 -282 5 -5 828 -6 834 -1 3 4 43 181 84 377 12 58 25 121 29 140 4 19 15
71 24 115 9 44 32 152 51 240 19 88 64 300 100 470 36 171 72 340 80 378 50
225 85 391 91 433 8 55 20 74 34 54 5 -8 10 -27 10 -41 0 -14 16 -136 36 -270
19 -134 42 -291 50 -349 8 -58 19 -134 24 -170 5 -36 34 -236 65 -445 30 -209
65 -445 76 -525 11 -80 27 -190 35 -245 8 -55 17 -115 20 -132 l5 -33 449 0
c419 0 449 1 454 18 3 9 21 94 41 187 20 94 42 199 50 235 8 36 44 205 80 375
36 171 83 396 106 500 22 105 49 233 60 285 11 52 24 113 29 135 5 22 21 96
35 165 14 69 30 143 35 165 5 22 17 76 26 120 9 44 20 96 24 115 37 170 94
438 150 705 16 77 59 280 95 450 36 171 70 328 74 350 5 22 17 76 26 120 10
44 18 89 19 100 1 20 -5 20 -413 20 -358 0 -415 -2 -421 -15 -9 -17 -11 -26
-75 -335 -25 -121 -50 -238 -55 -260 -5 -22 -35 -159 -65 -305 -31 -146 -74
-348 -95 -450 -22 -102 -64 -304 -95 -450 -30 -146 -59 -283 -65 -305 -5 -22
-14 -65 -20 -95 -6 -30 -13 -66 -16 -79 -3 -14 -9 -20 -14 -15 -11 11 -13 27
-75 504 -25 190 -54 410 -65 490 -11 80 -27 201 -36 270 -9 69 -20 152 -24
185 -4 33 -29 218 -54 410 -26 193 -50 373 -54 400 l-7 50 -441 3 c-346 2
-443 -1 -451 -10z"/>
<path d="M35655 36828 c-14 -63 -62 -288 -130 -613 -140 -663 -205 -970 -215
-1010 -5 -22 -24 -107 -41 -190 -17 -82 -39 -190 -50 -240 -11 -49 -24 -111
-29 -136 -9 -47 -82 -390 -145 -684 -21 -93 -43 -201 -51 -240 -19 -91 -52
-249 -64 -300 -22 -101 -41 -191 -70 -330 -17 -82 -35 -168 -40 -190 -5 -22
-11 -52 -15 -67 l-5 -28 882 0 c723 0 900 3 978 15 217 33 343 88 442 194 137
146 187 272 268 666 17 83 35 168 40 190 5 22 35 159 65 305 87 412 249 1179
339 1600 97 456 98 457 105 565 19 273 -70 410 -305 470 -135 34 -201 37
-1076 42 l-877 5 -6 -24z m1280 -783 c31 -30 31 -35 0 -181 -41 -195 -83 -391
-110 -519 -14 -66 -38 -183 -55 -260 -57 -275 -112 -532 -136 -645 -14 -63
-29 -135 -34 -160 -5 -25 -23 -110 -40 -190 -17 -80 -44 -208 -60 -285 -37
-173 -43 -189 -89 -217 -34 -22 -47 -23 -279 -26 -167 -3 -247 0 -256 7 -11 9
-11 21 0 69 7 31 25 113 40 182 14 69 39 186 54 260 16 74 49 232 74 350 25
118 55 260 66 315 12 55 35 161 50 235 16 74 45 212 65 305 20 94 40 190 45
215 5 25 18 88 30 140 11 52 30 140 41 195 11 55 27 130 35 168 l16 67 259 0
260 0 24 -25z"/>
<path d="M38640 36824 c-6 -14 -10 -31 -10 -39 0 -7 -6 -40 -14 -72 -15 -62
-30 -137 -71 -333 -14 -69 -30 -143 -35 -165 -5 -22 -48 -222 -95 -445 -47
-223 -90 -423 -95 -445 -5 -22 -16 -74 -25 -115 -15 -80 -45 -221 -70 -335 -8
-38 -24 -114 -35 -167 -11 -53 -26 -127 -34 -165 -8 -37 -40 -187 -71 -333
-30 -146 -60 -283 -65 -305 -5 -22 -23 -103 -39 -180 -40 -186 -157 -728 -180
-835 -11 -46 -18 -87 -16 -90 2 -3 457 -4 1013 -2 l1009 2 17 83 c9 45 21 100
26 122 5 22 26 117 46 210 20 94 44 208 54 255 10 47 17 86 15 88 -1 2 -250 3
-553 2 -377 0 -553 3 -557 10 -4 6 7 75 24 153 16 78 49 232 72 342 23 110 49
236 58 280 l17 80 482 3 c373 2 484 5 487 15 5 12 23 95 71 327 14 69 41 192
59 274 19 83 32 153 29 158 -3 4 -219 8 -480 8 -377 0 -474 3 -474 13 0 7 11
66 25 132 14 66 39 185 56 265 16 80 34 163 38 185 5 22 19 87 31 145 12 57
24 108 26 112 3 4 257 8 564 8 l560 0 5 23 c5 23 42 194 75 352 11 50 33 154
50 232 16 78 30 149 30 157 0 14 -98 16 -1005 16 l-1005 0 -10 -26z"/>
<path d="M41125 36838 c-2 -7 -22 -101 -45 -208 -22 -107 -45 -213 -50 -235
-9 -38 -17 -78 -75 -355 -15 -69 -33 -152 -40 -185 -8 -33 -28 -125 -44 -205
-43 -208 -130 -618 -141 -665 -5 -22 -28 -128 -50 -235 -22 -107 -47 -224 -55
-260 -13 -57 -57 -268 -225 -1060 -72 -338 -129 -608 -132 -619 -2 -8 122 -11
417 -11 l420 -1 36 163 c20 90 60 276 89 413 29 138 65 309 80 380 31 146 79
372 115 545 14 63 34 158 45 210 12 52 30 138 40 190 11 52 27 127 35 165 8
39 26 122 40 185 13 63 36 169 50 235 14 66 30 147 36 180 12 77 17 91 29 79
9 -9 15 -123 45 -774 8 -179 19 -415 25 -525 5 -110 15 -294 20 -410 6 -115
15 -300 20 -410 13 -254 30 -608 30 -617 0 -5 179 -8 398 -8 l398 0 94 203
c52 111 113 243 136 292 23 50 64 140 92 200 27 61 65 144 85 185 43 91 461
994 492 1065 13 28 42 91 65 140 23 50 53 115 67 145 14 30 63 136 108 235 45
99 89 196 98 215 8 19 22 44 32 55 16 19 16 19 12 -10 -2 -16 -23 -118 -46
-225 -23 -107 -60 -280 -82 -385 -22 -104 -42 -199 -44 -210 -3 -11 -17 -74
-31 -140 -89 -423 -126 -595 -134 -630 -5 -22 -29 -139 -55 -260 -25 -121 -52
-249 -60 -285 -13 -61 -27 -125 -75 -357 -12 -54 -25 -116 -30 -138 -5 -22
-11 -52 -15 -67 l-5 -28 423 0 424 0 6 44 c6 39 152 737 177 841 5 22 30 139
55 260 25 121 50 238 55 260 5 22 23 108 40 190 17 83 37 177 45 210 8 33 21
94 29 135 18 88 58 279 116 550 23 107 47 224 55 260 7 36 32 153 55 260 23
107 48 224 55 260 8 36 32 151 55 255 23 105 45 210 51 235 5 25 18 90 30 145
11 55 22 109 22 120 2 20 -4 20 -598 20 l-600 0 -45 -90 c-25 -49 -65 -133
-89 -185 -25 -52 -67 -142 -94 -200 -27 -58 -64 -136 -82 -175 -32 -68 -75
-160 -157 -335 -22 -47 -86 -184 -143 -305 -57 -121 -126 -269 -155 -330 -29
-60 -67 -141 -85 -180 -18 -38 -54 -115 -80 -170 -26 -55 -63 -134 -82 -175
-19 -41 -53 -113 -75 -160 -22 -47 -58 -123 -80 -170 -154 -331 -180 -383
-194 -387 -7 -3 -13 50 -17 164 -4 92 -13 317 -22 498 -8 182 -19 434 -24 560
-6 127 -13 264 -16 305 -2 41 -7 136 -10 210 -3 74 -10 227 -15 340 -5 113
-14 320 -20 460 -9 210 -13 284 -20 328 0 1 -270 2 -600 2 -472 0 -602 -3
-605 -12z"/>
<path d="M45642 36838 c-6 -7 -15 -40 -21 -73 -6 -33 -27 -134 -47 -225 -82
-380 -96 -447 -149 -700 -30 -146 -60 -283 -65 -305 -5 -22 -35 -159 -65 -305
-124 -587 -137 -647 -150 -710 -8 -36 -33 -153 -55 -260 -23 -107 -47 -222
-55 -255 -7 -33 -23 -105 -34 -160 -12 -55 -32 -154 -47 -220 -33 -158 -82
-390 -93 -440 -5 -22 -23 -110 -41 -195 -18 -85 -34 -163 -34 -173 -1 -17 24
-17 443 -17 245 0 446 1 447 3 1 1 23 101 48 222 26 121 51 238 56 260 5 22
34 159 65 305 30 146 60 283 65 305 5 22 43 202 85 400 42 198 80 378 85 400
5 22 23 108 40 190 17 83 37 177 45 210 8 33 21 96 30 140 9 44 36 172 60 285
24 113 64 304 90 425 25 121 50 240 56 265 36 160 129 607 129 622 0 17 -21
18 -439 18 -339 0 -441 -3 -449 -12z"/>
<path d="M47595 36814 c-8 -20 -15 -38 -15 -40 0 -2 -65 -166 -143 -366 -264
-667 -509 -1290 -601 -1528 -31 -80 -61 -154 -66 -165 -4 -11 -20 -49 -33 -85
-14 -36 -64 -164 -112 -285 -48 -121 -140 -355 -205 -520 -65 -165 -157 -399
-205 -520 -144 -362 -195 -498 -191 -504 2 -3 204 -5 448 -3 l444 2 78 203
c43 111 103 265 132 342 30 77 61 156 68 175 l14 35 418 0 419 0 -2 -75 c-2
-41 -8 -211 -15 -377 -6 -167 -10 -304 -7 -305 2 -2 206 -2 452 0 l448 2 -1
58 c-1 31 5 287 14 567 9 281 20 663 26 850 5 187 12 408 15 490 3 83 9 303
15 490 6 187 12 376 14 420 8 144 31 927 31 1050 l0 120 -712 3 -713 2 -15
-36z m575 -860 c-5 -93 -16 -288 -25 -434 -8 -146 -19 -330 -25 -410 -18 -261
-30 -463 -35 -600 -4 -74 -8 -145 -11 -157 l-4 -23 -275 0 c-253 0 -275 1
-275 17 0 10 27 89 59 178 33 88 85 230 116 315 31 85 73 198 92 250 19 52 43
118 53 145 24 66 90 245 135 370 20 55 60 165 90 245 29 80 60 166 69 192 16
48 38 90 43 84 2 -2 -1 -79 -7 -172z"/>
<path d="M50720 36840 c-190 -16 -346 -52 -451 -105 -107 -55 -224 -196 -287
-347 -40 -96 -68 -209 -147 -588 -36 -173 -70 -337 -76 -365 -17 -80 -22 -264
-10 -329 23 -123 71 -192 216 -307 85 -68 303 -214 445 -299 230 -137 415
-271 469 -339 47 -59 50 -74 29 -170 -10 -47 -30 -142 -44 -211 -46 -220 -37
-215 -349 -215 -277 0 -285 3 -285 86 0 27 4 69 10 92 14 60 80 374 80 381 0
3 -196 6 -435 6 -239 0 -435 -3 -435 -6 0 -6 -33 -160 -106 -499 -46 -207 -48
-229 -48 -370 -1 -132 2 -157 22 -206 33 -82 82 -133 165 -173 146 -69 166
-71 882 -71 588 0 647 2 729 19 188 40 293 93 391 199 92 98 161 238 200 405
28 119 34 144 79 362 25 118 55 262 68 320 19 85 23 135 23 265 0 144 -2 166
-23 217 -39 98 -132 185 -357 340 -60 41 -173 112 -250 158 -371 220 -505 322
-555 420 l-20 38 26 119 c68 319 73 339 105 369 l30 29 250 3 249 3 25 -25
c31 -31 31 -40 1 -179 -59 -268 -76 -351 -72 -354 2 -2 189 -4 417 -4 327 0
415 3 421 13 3 7 15 58 27 113 11 55 45 219 76 365 51 240 56 276 55 385 0
129 -13 189 -54 259 -60 102 -171 155 -386 187 -93 14 -956 20 -1100 9z"/>
<path d="M39574 30943 c-3 -16 -9 -39 -14 -53 -5 -14 -18 -63 -30 -109 -12
-46 -24 -90 -27 -98 -4 -11 30 -13 185 -13 l191 0 113 133 c62 72 119 140 127
150 13 16 -2 17 -263 17 l-276 0 -6 -27z"/>
<path d="M39480 29680 l0 -910 230 2 230 3 0 905 0 905 -230 3 -230 2 0 -910z"/>
<path d="M33360 29660 l0 -890 188 2 187 3 2 493 c1 272 3 496 6 498 8 8 23
-18 152 -256 70 -129 129 -237 131 -239 1 -1 57 -3 124 -3 67 0 123 2 125 3 1
2 25 45 52 94 180 335 219 405 231 405 9 0 12 -107 12 -500 l0 -500 183 2 182
3 0 885 0 885 -187 3 -187 2 -72 -132 c-40 -73 -91 -167 -114 -208 -169 -315
-211 -390 -222 -390 -11 0 -40 50 -191 325 -30 55 -64 118 -77 140 -30 54
-106 193 -126 230 l-16 30 -192 3 -191 2 0 -890z"/>
<path d="M35470 29660 l0 -890 190 0 190 0 0 890 0 890 -190 0 -190 0 0 -890z"/>
<path d="M36390 29660 l0 -890 185 0 185 0 0 325 c0 277 2 325 14 325 8 0 21
-8 28 -18 7 -11 37 -46 66 -78 115 -127 228 -326 285 -504 l15 -45 192 -3
c174 -2 192 -1 186 14 -3 9 -9 28 -12 42 -40 179 -171 445 -296 604 -30 38
-30 58 -1 58 9 0 43 7 76 17 117 32 200 141 227 297 14 84 12 378 -4 451 -28
130 -94 224 -189 266 -52 24 -53 24 -504 27 l-453 3 0 -891z m765 545 c25 -24
25 -27 25 -188 0 -150 -2 -165 -20 -185 -29 -31 -46 -33 -230 -30 l-165 3 -3
213 -2 212 185 0 c184 0 186 0 210 -25z"/>
<path d="M38181 30208 c-108 -397 -147 -539 -161 -588 -12 -41 -89 -321 -100
-365 -5 -16 -15 -55 -23 -85 -47 -170 -107 -392 -107 -396 0 -2 86 -3 191 -2
l191 3 37 130 36 130 266 3 c206 2 269 -1 276 -10 5 -7 22 -58 37 -113 44
-163 16 -145 231 -145 160 0 185 2 185 15 0 9 -18 81 -41 161 -22 79 -48 175
-58 212 -20 74 -197 717 -296 1077 -35 127 -68 249 -74 273 l-12 42 -242 0
-242 0 -94 -342z m355 -235 c3 -16 8 -35 10 -43 3 -8 27 -95 55 -195 27 -99
61 -221 75 -272 14 -51 23 -97 19 -103 -4 -6 -72 -10 -181 -10 -166 0 -174 1
-174 20 0 16 149 576 165 618 8 21 24 13 31 -15z"/>
<path d="M40350 29660 l0 -890 185 0 185 0 0 500 c0 395 3 498 13 494 6 -2 73
-115 147 -251 l135 -247 119 0 119 -1 22 35 c12 19 39 67 59 105 21 39 74 136
118 218 44 81 84 144 89 141 5 -3 9 -215 9 -500 l0 -494 185 0 185 0 0 890 0
890 -187 0 -188 0 -30 -58 c-16 -31 -77 -143 -135 -248 -58 -104 -134 -245
-170 -312 -36 -67 -68 -122 -72 -122 -3 0 -25 35 -49 78 -23 42 -50 91 -59
107 -9 17 -48 86 -85 155 -38 69 -83 152 -102 185 -18 33 -52 95 -76 137 l-42
78 -187 0 -188 0 0 -890z"/>
<path d="M42632 30393 c-23 -87 -67 -248 -98 -358 -30 -110 -63 -231 -74 -270
-48 -178 -120 -443 -129 -470 -5 -16 -18 -66 -30 -110 -11 -44 -41 -153 -66
-242 -25 -90 -45 -165 -45 -168 0 -3 87 -4 192 -3 l193 3 32 118 c17 65 37
125 44 133 9 11 59 14 268 14 171 0 261 -4 268 -11 6 -6 26 -67 44 -135 l33
-124 194 0 c181 0 194 1 187 18 -4 9 -22 73 -41 142 -18 69 -38 139 -43 155
-5 17 -23 82 -40 145 -17 63 -47 174 -67 245 -19 72 -41 153 -49 180 -21 82
-215 786 -231 843 l-15 52 -242 0 -242 0 -43 -157z m309 -433 c4 -19 16 -66
27 -105 19 -71 68 -245 82 -300 5 -16 18 -63 30 -103 12 -41 19 -80 16 -88 -8
-20 -344 -21 -352 -1 -3 8 7 58 21 113 54 203 105 390 114 419 5 17 13 47 17
68 8 49 36 47 45 -3z"/>
<path d="M45545 30536 c-22 -7 -54 -20 -71 -29 -42 -22 -112 -100 -135 -152
-35 -80 -40 -178 -37 -765 3 -562 3 -565 26 -622 26 -64 83 -128 139 -156 70
-36 135 -42 432 -42 265 0 295 2 356 21 55 17 78 31 120 73 82 82 96 130 102
359 l6 187 -188 -2 -188 -3 2 -122 c3 -127 -8 -173 -44 -187 -9 -3 -91 -6
-181 -6 -162 0 -165 0 -189 25 l-25 24 0 521 0 521 25 24 c24 25 27 25 193 25
225 0 216 6 219 -162 l1 -123 185 -3 186 -2 -5 147 c-9 258 -61 371 -199 435
-49 22 -59 23 -370 25 -239 2 -330 -1 -360 -11z"/>
<path d="M46910 29660 l0 -890 530 0 530 0 0 160 0 160 -342 2 -343 3 0 195 0
195 303 3 302 2 0 154 c0 131 -2 155 -16 160 -9 3 -146 6 -305 6 l-289 0 0
210 0 210 343 2 342 3 3 158 3 157 -531 0 -530 0 0 -890z"/>
<path d="M43780 29680 l0 -200 640 0 640 0 0 200 0 200 -640 0 -640 0 0 -200z"/>
</g>
</svg>
